# xmcd
#
# Track frame offsets: 
#        150
#        11287
#        28387
#        40475
#        51937
#        65737
#        76850
#        91337
#        101887
#        116287
#        134150
#        148200
#        161962
#        172950
#        186650
#        199500
#        210512
#        221462
#
# Disc length: 3116 seconds
#
# Revision: 3
# Processed by: cddbd v1.5.2PL0 Copyright (c) Steve Scherf et al.
# Submitted via: ExactAudioCopy v1.3
#
DISCID=110c2a12
DTITLE=Jim Croce - Castle Masters Collection
DYEAR=1986
DGENRE=Folk/Rock
TTITLE0=Time in a bottle
TTITLE1=Operator (that's not the way it feels)
TTITLE2=Dreamin' again
TTITLE3=I'll have to say i love you in a Song
TTITLE4=Lover's Cross
TTITLE5=Thursday
TTITLE6=These Dreams
TTITLE7=A long Time ago
TTITLE8=I got a Name
TTITLE9=Mississippi Lady
TTITLE10=New York's not my Home
TTITLE11=You don't mess around with Jim
TTITLE12=Old Man River
TTITLE13=Bad, Bad Leroy Brown
TTITLE14=Walkin' back to Georgia
TTITLE15=Box #10
TTITLE16=Speedball Tucker
TTITLE17=Rapid Roy (the Stock Car Boy)
EXTD=ID3G: 0
EXTT0=
EXTT1=
EXTT2=
EXTT3=
EXTT4=
EXTT5=
EXTT6=
EXTT7=
EXTT8=
EXTT9=
EXTT10=
EXTT11=
EXTT12=
EXTT13=
EXTT14=
EXTT15=
EXTT16=
EXTT17=
PLAYORDER=
